<?xml version="1.0" encoding="UTF-8" standalone="no"?>
<svg
   viewBox="0 0 512 512"
   version="1.1"
   id="svg243"
   sodipodi:docname="fan-solid.svg"
   inkscape:version="1.1.2 (0a00cf5339, 2022-02-04, custom)"
   xmlns:inkscape="http://www.inkscape.org/namespaces/inkscape"
   xmlns:sodipodi="http://sodipodi.sourceforge.net/DTD/sodipodi-0.dtd"
   xmlns="http://www.w3.org/2000/svg"
   xmlns:svg="http://www.w3.org/2000/svg">
  <defs
     id="defs247" />
  <sodipodi:namedview
     id="namedview245"
     pagecolor="#505050"
     bordercolor="#eeeeee"
     borderopacity="1"
     inkscape:pageshadow="0"
     inkscape:pageopacity="0"
     inkscape:pagecheckerboard="0"
     showgrid="false"
     inkscape:zoom="1.6894531"
     inkscape:cx="256"
     inkscape:cy="256"
     inkscape:window-width="1920"
     inkscape:window-height="1080"
     inkscape:window-x="0"
     inkscape:window-y="0"
     inkscape:window-maximized="1"
     inkscape:current-layer="svg243" />
  <!--! Font Awesome Pro 6.1.1 by @fontawesome - https://fontawesome.com License - https://fontawesome.com/license (Commercial License) Copyright 2022 Fonticons, Inc. -->
  <path
     d="M352.6 127.1c-28.12 0-54.13 4.5-77.13 12.88l12.38-123.1c1.125-10.5-8.125-18.88-18.5-17.63C189.6 10.12 127.1 77.62 127.1 159.4c0 28.12 4.5 54.13 12.88 77.13L17.75 224.1c-10.5-1.125-18.88 8.125-17.63 18.5c9.1 79.75 77.5 141.4 159.3 141.4c28.12 0 54.13-4.5 77.13-12.88l-12.38 123.1c-1.125 10.38 8.125 18.88 18.5 17.63c79.75-10 141.4-77.5 141.4-159.3c0-28.12-4.5-54.13-12.88-77.13l123.1 12.38c10.5 1.125 18.88-8.125 17.63-18.5C501.9 189.6 434.4 127.1 352.6 127.1zM255.1 287.1c-17.62 0-31.1-14.38-31.1-32s14.37-32 31.1-32s31.1 14.38 31.1 32S273.6 287.1 255.1 287.1z"
     id="path241"
     style="fill:#ffffff" />
</svg>
