<?xml version="1.0" encoding="UTF-8" standalone="no"?>
<svg
   viewBox="0 0 384 512"
   version="1.1"
   id="svg48"
   sodipodi:docname="computer-mouse-solid.svg"
   inkscape:version="1.2.1 (9c6d41e410, 2022-07-14, custom)"
   xmlns:inkscape="http://www.inkscape.org/namespaces/inkscape"
   xmlns:sodipodi="http://sodipodi.sourceforge.net/DTD/sodipodi-0.dtd"
   xmlns="http://www.w3.org/2000/svg"
   xmlns:svg="http://www.w3.org/2000/svg">
  <defs
     id="defs52" />
  <sodipodi:namedview
     id="namedview50"
     pagecolor="#505050"
     bordercolor="#eeeeee"
     borderopacity="1"
     inkscape:showpageshadow="0"
     inkscape:pageopacity="0"
     inkscape:pagecheckerboard="0"
     inkscape:deskcolor="#505050"
     showgrid="false"
     inkscape:zoom="1.7011719"
     inkscape:cx="192.22044"
     inkscape:cy="256.58783"
     inkscape:window-width="1920"
     inkscape:window-height="1080"
     inkscape:window-x="0"
     inkscape:window-y="0"
     inkscape:window-maximized="1"
     inkscape:current-layer="svg48" />
  <!--! Font Awesome Pro 6.2.0 by @fontawesome - https://fontawesome.com License - https://fontawesome.com/license (Commercial License) Copyright 2022 Fonticons, Inc. -->
  <path
     d="M0 192H176V0H160C71.6 0 0 71.6 0 160v32zm0 32V352c0 88.4 71.6 160 160 160h64c88.4 0 160-71.6 160-160V224H192 0zm384-32V160C384 71.6 312.4 0 224 0H208V192H384z"
     id="path46" />
  <path
     style="fill:#ffffff;stroke-width:0.58783"
     d="M 0.45013077,168.26636 C 0.68520531,148.14806 0.90893838,143.44849 1.9446992,136.87255 7.5084136,101.5491 22.351602,72.222602 47.287103,47.287103 66.28573,28.288474 87.976513,15.103035 112.86893,7.421085 128.71204,2.5318026 139.89648,0.88113101 160.03674,0.45975078 L 175.46728,0.13690862 V 96.031713 191.92652 H 87.820474 0.17367093 Z"
     id="path296" />
  <path
     style="fill:#ffffff;stroke-width:0.58783"
     d="M 208.38576,96.110218 V 0.29391504 l 11.31573,0.002009 c 6.22365,0.001105 14.35775,0.27565904 18.07578,0.61012048 37.62537,3.38465618 72.21151,19.46917148 98.69543,45.89896048 24.85784,24.807036 39.83317,54.464655 45.67355,90.453315 0.78795,4.85542 1.05625,11.34539 1.25759,30.42021 l 0.25594,24.24799 h -87.63701 -87.63701 z"
     id="path298" />
  <path
     style="fill:#ffffff;stroke-width:0.58783"
     d="M 145.19403,511.06112 C 125.61042,509.12729 108.43071,504.26795 90.525832,495.59805 73.382391,487.29686 61.092393,478.51819 47.287103,464.7129 33.481816,450.90761 24.703144,438.61761 16.401949,421.47417 7.4936902,403.07703 2.7805394,386.10788 0.89141863,365.63031 0.52901315,361.70193 0.29470479,332.69083 0.29440635,291.71068 l -4.9131e-4,-67.4535 H 191.94637 383.59881 l -0.19046,72.15614 c -0.20843,78.97074 -0.0196,74.38961 -3.76041,91.24382 -7.93633,35.75746 -29.97117,69.62058 -59.86838,92.00567 -21.73217,16.27166 -44.77016,25.91609 -72.59701,30.39143 -7.57833,1.21881 -9.93437,1.28198 -52.31688,1.40279 -24.40964,0.0696 -46.76188,-0.10858 -49.67164,-0.39591 z"
     id="path300" />
</svg>
